<?xml version="1.0" encoding="UTF-8" standalone="no"?>
<!-- Created with Inkscape (http://www.inkscape.org/) -->

<svg
   xmlns:dc="http://purl.org/dc/elements/1.1/"
   xmlns:cc="http://creativecommons.org/ns#"
   xmlns:rdf="http://www.w3.org/1999/02/22-rdf-syntax-ns#"
   xmlns:svg="http://www.w3.org/2000/svg"
   xmlns="http://www.w3.org/2000/svg"
   xmlns:sodipodi="http://sodipodi.sourceforge.net/DTD/sodipodi-0.dtd"
   xmlns:inkscape="http://www.inkscape.org/namespaces/inkscape"
   id="svg2"
   version="1.1"
   inkscape:version="0.48.4 r9939"
   width="2000"
   height="2000"
   sodipodi:docname="malek.jpg">
  <metadata
     id="metadata8">
    <rdf:RDF>
      <cc:Work
         rdf:about="">
        <dc:format>image/svg+xml</dc:format>
        <dc:type
           rdf:resource="http://purl.org/dc/dcmitype/StillImage" />
        <dc:title></dc:title>
      </cc:Work>
    </rdf:RDF>
  </metadata>
  <defs
     id="defs6" />
  <sodipodi:namedview
     pagecolor="#ffffff"
     bordercolor="#666666"
     borderopacity="1"
     objecttolerance="10"
     gridtolerance="10"
     guidetolerance="10"
     inkscape:pageopacity="0"
     inkscape:pageshadow="2"
     inkscape:window-width="1280"
     inkscape:window-height="962"
     id="namedview4"
     showgrid="false"
     inkscape:zoom="0.12770563"
     inkscape:cx="1559.2752"
     inkscape:cy="1660.5804"
     inkscape:window-x="-8"
     inkscape:window-y="-8"
     inkscape:window-maximized="1"
     inkscape:current-layer="svg2" />
  <g
     id="g3861">
    <g
       transform="translate(43.37765,-203.59322)"
       id="g3855">
      <path
         inkscape:connector-curvature="0"
         style="fill:#000000;stroke:#000000;stroke-width:1.04955947;stroke-opacity:1"
         d="M 971.125,557.4375 664,729.0625 659.09375,1080.8438 961.28125,1261 1268.4062,1089.375 1273.3125,737.59375 971.125,557.4375 z M 969.53125,671.40625 1173.8125,793.1875 1170.5,1031 962.875,1147.0312 758.59375,1025.25 l 3.3125,-237.84375 207.625,-116 z"
         id="path2987" />
      <path
         style="fill:#000000;stroke:#000000;stroke-width:1px;stroke-linecap:butt;stroke-linejoin:miter;stroke-opacity:1"
         d="M 71.981073,1103.0051 301.76681,1222.0507 C 212.36838,683.26526 644.71977,480.7077 955.2786,444.10142 c 310.5588,36.60628 742.9102,239.16384 653.5118,777.94928 l 229.7857,-119.0456 C 1891.6637,413.33714 1075.5582,257.38171 955.2786,244.76921 834.99901,257.38171 18.893554,413.33714 71.981073,1103.0051 z"
         id="path3763"
         inkscape:connector-curvature="0"
         sodipodi:nodetypes="ccccccc" />
      <path
         style="fill:#000000;stroke:#000000;stroke-width:1px;stroke-linecap:butt;stroke-linejoin:miter;stroke-opacity:1"
         d="m 303.4322,1221.8432 383.69492,0 565.75428,301.4746 609.8008,-335.7331 0,196.7416 -594.1398,339.6483 z"
         id="path3767"
         inkscape:connector-curvature="0" />
      <path
         inkscape:connector-curvature="0"
         style="fill:#000000;stroke:#000000;stroke-width:1px;stroke-linecap:butt;stroke-linejoin:miter;stroke-opacity:1"
         d="m 50.5625,1187.5938 0,196.7187 594.15625,339.6563 L 863.5625,1610.0938 686.21875,1509.5312 660.375,1523.3125 50.5625,1187.5938 z m 1175.5625,34.25 -190.3125,101.4062 191.2187,97.75 382.7813,-199.1562 -383.6875,0 z"
         id="path3769" />
    </g>
    <g
       transform="matrix(0.26415015,0,0,0.26415015,804.5696,746.80678)"
       id="g3832">
      <path
         style="fill:#000000;fill-opacity:1;stroke:none"
         d="m 3693.8677,4343.5762 c 0,-2.373 5.2363,-7.9792 11.6363,-12.4582 31.6587,-22.156 60.3447,-46.1203 60.3447,-50.4119 0,-2.6379 3.2711,-4.7963 7.2692,-4.7963 9.2618,0 71.4457,-60.6444 89.6421,-87.4228 17.6218,-25.9328 17.3963,-36.9463 -1.2607,-61.5537 -25.144,-33.1633 -73.6008,-83.5034 -80.4238,-83.5496 -2.284,-0.015 -4.1528,-9.7871 -4.1528,-21.7147 0,-11.9277 1.8688,-22.5172 4.1528,-23.5323 5.5844,-2.4819 45.6803,-83.7148 45.6803,-92.5466 0,-3.8432 3.5897,-10.5773 7.977,-14.9647 6.9448,-6.9448 10.5275,-6.7609 27.6851,1.421 10.8394,5.1689 19.7079,11.4282 19.7079,13.9096 0,2.4813 2.6697,4.5114 5.9326,4.5114 9.6468,0 17.0873,9.6472 46.4458,60.2203 12.5566,21.63 14.0593,30.2441 14.0058,80.2865 -0.034,31.5524 -3.3831,66.9489 -7.662,80.9735 -9.0465,29.6509 -32.0975,79.5274 -37.9584,82.1322 -2.284,1.0151 -4.1527,5.3755 -4.1527,9.6898 0,4.3142 -2.4917,7.8441 -5.537,7.8441 -3.0454,0 -5.537,3.3323 -5.537,7.4051 0,4.0728 -11.345,17.154 -25.211,29.0693 -13.8661,11.9153 -28.5071,24.6478 -32.5356,28.2944 -13.5722,12.2857 -47.7088,29.3603 -58.699,29.3603 -5.9981,0 -10.9056,2.4916 -10.9056,5.537 0,3.0453 -9.9666,5.537 -22.148,5.537 -12.1814,0 -22.148,2.4916 -22.148,5.537 0,3.0453 -4.9833,5.537 -11.074,5.537 -6.0907,0 -11.074,-1.9416 -11.074,-4.3147 z"
         id="path3788"
         inkscape:connector-curvature="0" />
      <path
         style="fill:#000000;fill-opacity:1;stroke:none"
         d="m 3541.8554,4111.1839 c 1.9391,-11.4201 6.0473,-29.4846 9.1293,-40.1433 3.0821,-10.6587 7.7265,-89.1458 10.321,-174.4157 4.951,-162.7142 8.9725,-213.1747 16.9893,-213.1747 2.6579,0 4.8325,-6.2291 4.8325,-13.8425 0,-7.6134 2.4917,-13.8425 5.537,-13.8425 3.0454,0 5.5371,-5.1122 5.5371,-11.3604 0,-13.8156 37.8129,-88.3057 44.8261,-88.3057 2.7538,0 5.0069,4.9833 5.0069,11.074 0,6.0907 -2.4916,11.074 -5.537,11.074 -3.4679,0 -5.5662,34.6584 -5.6152,92.7449 -0.1212,143.7523 -8.922,268.9262 -22.2874,316.9935 -6.3509,22.8402 -12.9101,49.6254 -14.576,59.5228 -1.666,9.8974 -5.2481,17.9953 -7.9602,17.9953 -2.7122,0 -4.9313,3.7375 -4.9313,8.3055 0,4.568 -2.4916,8.3055 -5.537,8.3055 -3.0453,0 -5.537,3.9758 -5.537,8.835 0,10.8117 -20.8465,40.9981 -28.3129,40.9981 -3.188,0 -3.9625,-8.5301 -1.8852,-20.7638 z"
         id="path3790"
         inkscape:connector-curvature="0" />
      <path
         style="fill:#000000;fill-opacity:1;stroke:none"
         d="m 2780.2617,4342.3539 c 0,-3.0454 -7.4749,-5.537 -16.611,-5.537 -9.1361,0 -16.611,-2.4917 -16.611,-5.537 0,-3.0454 -2.6696,-5.537 -5.9325,-5.537 -6.9978,0 -18.0518,-10.4576 -23.4114,-22.1481 -2.0942,-4.568 -6.0264,-12.0429 -8.7382,-16.611 -26.3122,-44.3228 -36.4344,-145.5107 -22.9409,-229.3322 2.9816,-18.5215 11.7024,-72.7382 19.3795,-120.4816 7.6772,-47.7432 13.9585,-96.9534 13.9585,-109.3558 0,-12.4024 2.4916,-22.5499 5.537,-22.5499 3.0453,0 5.537,-12.4582 5.537,-27.685 0,-15.2268 2.4916,-27.685 5.537,-27.685 3.0453,0 5.537,-9.844 5.537,-21.8755 0,-40.1076 33.3175,-166.3747 45.1202,-170.9969 2.5921,-1.0151 4.7128,-6.6213 4.7128,-12.4582 0,-5.837 2.4917,-10.6126 5.537,-10.6126 3.0454,0 5.537,-3.4832 5.537,-7.7404 0,-4.2571 6.1992,-18.5841 13.7759,-31.8377 16.6978,-29.2088 16.7754,-27.9364 2.7536,45.126 -6.1356,31.9702 -12.7378,79.9296 -14.6716,106.5764 -1.9339,26.6469 -5.6347,48.4488 -8.224,48.4488 -2.5893,0 -4.7079,14.9499 -4.7079,33.2221 0,18.4566 -2.4609,33.222 -5.537,33.222 -3.0453,0 -5.5805,11.8353 -5.6336,26.3008 -0.053,14.4654 -3.7812,48.7256 -8.2845,76.1338 -9.6982,59.0259 -9.6519,58.1386 -3.0285,58.1386 5.3979,0 94.4647,-86.9785 94.4647,-92.2499 0,-1.6426 8.0979,-11.3405 17.9953,-21.5508 9.8974,-10.2103 25.4702,-27.625 34.6063,-38.6995 9.136,-11.0744 22.8401,-27.2645 30.4535,-35.978 7.6134,-8.7134 21.3175,-25.0131 30.4535,-36.2215 9.1361,-11.2085 23.4631,-27.1745 31.8378,-35.48 8.3747,-8.3056 15.2268,-16.5302 15.2268,-18.277 0,-1.7467 13.7041,-17.5525 30.4535,-35.1241 16.7494,-17.5715 30.4535,-35.015 30.4535,-38.7633 0,-3.7483 4.9833,-8.3967 11.074,-10.3298 6.0908,-1.9331 11.0741,-5.49 11.0741,-7.9041 0,-2.4142 8.0978,-13.3932 17.9952,-24.3977 66.6291,-74.0827 79.1098,-88.453 80.8117,-93.0464 1.0501,-2.8343 20.3604,-23.6644 42.9118,-46.289 22.5513,-22.6247 41.0163,-43.0949 41.0334,-45.4894 0.017,-2.3945 11.2294,-16.1796 24.9165,-30.6337 13.6871,-14.454 24.8856,-27.7131 24.8856,-29.4647 0,-1.7517 3.1146,-6.3036 6.9212,-10.1154 3.8067,-3.8118 14.3963,-16.4384 23.5323,-28.059 9.1361,-11.6206 19.7256,-24.3416 23.5323,-28.2689 3.8067,-3.9273 6.9213,-8.5644 6.9213,-10.3046 0,-1.7402 4.3603,-7.9687 9.6897,-13.8411 14.5449,-16.027 20.6108,-23.967 32.139,-42.0683 5.768,-9.0569 14.9119,-20.4969 20.3198,-25.4221 5.4079,-4.9253 9.8325,-11.9435 9.8325,-15.5962 0,-3.6527 6.7513,-15.8187 15.0028,-27.0356 8.2515,-11.2169 15.7265,-21.4325 16.611,-22.7014 0.8846,-1.2689 2.7627,-1.1526 4.1737,0.2584 6.1328,6.1328 -32.3776,104.5058 -42.7087,109.0975 -2.284,1.0151 -4.1528,6.6213 -4.1528,12.4582 0,5.8369 -2.4916,10.6126 -5.537,10.6126 -3.0453,0 -5.537,2.5451 -5.537,5.6557 0,6.7221 -28.6336,51.674 -34.6063,54.3285 -2.284,1.0152 -4.1527,6.0713 -4.1527,11.236 0,5.1646 -4.9833,12.982 -11.074,17.3719 -6.0908,4.3899 -11.0741,10.0584 -11.0741,12.5967 0,2.5382 -7.4634,12.5776 -16.5853,22.3099 -9.122,9.7322 -16.597,19.4504 -16.6111,21.596 -0.017,2.1456 -5.6318,9.6375 -12.4839,16.6487 -6.852,7.0112 -19.01,21.4515 -27.0177,32.0895 -8.0078,10.638 -22.3348,27.417 -31.8378,37.2867 -9.5031,9.8697 -17.2783,19.4625 -17.2783,21.3175 0,1.8549 -8.0979,11.7495 -17.9952,21.988 -9.8974,10.2385 -27.9619,30.3688 -40.1433,44.7339 -12.1815,14.365 -31.4918,35.6388 -42.9118,47.2749 -11.4201,11.6361 -20.7638,22.7767 -20.7638,24.757 0,1.9803 -11.2124,14.1916 -24.9165,27.1364 -13.7041,12.9447 -24.9166,25.1177 -24.9166,27.0509 0,3.861 -17.9099,24.4979 -37.3747,43.0654 -6.8521,6.5362 -12.4583,14.0153 -12.4583,16.6203 0,5.2279 -15.389,23.0269 -42.9118,49.6318 -9.8974,9.5674 -17.9953,19.5393 -17.9953,22.1598 0,2.6204 -13.6709,19.0388 -30.3798,36.4851 -16.7088,17.4463 -30.4129,33.4509 -30.4535,35.5657 -0.04,2.1148 -16.2695,20.0409 -36.0643,39.8357 -19.7948,19.7948 -35.9905,38.5732 -35.9905,41.7296 0,3.1566 5.6062,6.9198 12.4583,8.3627 6.852,1.443 39.1901,8.9655 71.8625,16.7166 32.6724,7.7511 65.6868,14.0929 73.3653,14.0929 7.6786,0 13.9611,2.4917 13.9611,5.537 0,3.0454 8.7208,5.537 19.3795,5.537 10.6587,0 19.3795,2.4917 19.3795,5.537 0,3.0454 9.9666,5.537 22.148,5.537 12.1814,0 22.1481,-2.4916 22.1481,-5.537 0,-3.0453 2.4727,-5.537 5.4948,-5.537 7.1458,0 33.2642,-22.7194 33.2642,-28.9352 0,-2.6346 6.2291,-11.0193 13.8425,-18.6327 7.6134,-7.6134 13.8425,-16.2209 13.8425,-19.1278 0,-2.9069 12.125,-5.2854 26.9443,-5.2854 25.5073,0 28.0175,-1.3773 47.0646,-25.8252 11.0661,-14.2038 20.1202,-27.9079 20.1202,-30.4535 0,-2.5456 4.9833,-4.6283 11.074,-4.6283 6.0907,0 11.074,2.4916 11.074,5.537 0,3.0453 3.7375,5.537 8.3056,5.537 4.568,0 8.3055,-2.4917 8.3055,-5.537 0,-3.0454 3.7374,-5.537 8.3055,-5.537 4.568,0 8.3055,-2.3784 8.3055,-5.2854 0,-11.8843 28.7317,-33.4737 44.5477,-33.4737 8.9976,0 16.3593,-2.4916 16.3593,-5.537 0,-3.0453 3.7375,-5.537 8.3055,-5.537 6.829,0 8.3056,-9.8436 8.3056,-55.37 0,-33.2221 2.2148,-55.3701 5.537,-55.3701 3.0453,0 5.537,-4.121 5.537,-9.1576 0,-5.0368 8.7207,-24.7519 19.3795,-43.8115 10.6587,-19.0596 19.3795,-38.6094 19.3795,-43.4439 0,-4.8346 2.4917,-8.7901 5.537,-8.7901 3.0454,0 5.537,-3.7375 5.537,-8.3055 0,-4.568 2.4917,-8.3055 5.537,-8.3055 3.396,0 5.537,26.7622 5.537,69.2126 0,42.4504 -2.141,69.2125 -5.537,69.2125 -3.0453,0 -5.537,7.475 -5.537,16.611 0,9.1361 -2.2143,16.6111 -4.9208,16.6111 -2.7064,0 -6.5098,8.4704 -8.452,18.8231 -1.9422,10.3527 -6.8179,21.5508 -10.8349,24.8847 -4.0171,3.3338 -11.8045,16.0424 -17.3055,28.2414 -5.5009,12.1989 -12.115,22.1799 -14.6977,22.1799 -2.5829,0 -4.6961,2.7795 -4.6961,6.1766 0,8.5047 -42.5698,47.1245 -67.8284,61.5347 -11.42,6.5153 -20.7637,13.8788 -20.7637,16.3633 0,2.4846 -3.5299,4.5174 -7.8441,4.5174 -4.3143,0 -8.6747,1.8688 -9.6898,4.1528 -1.0151,2.284 -13.7253,10.354 -28.2449,17.9334 -14.5196,7.5794 -32.4753,19.4148 -39.9016,26.3008 -7.4264,6.886 -16.1028,12.5201 -19.2811,12.5201 -3.1782,0 -5.7786,2.4917 -5.7786,5.537 0,3.0454 -4.9292,5.537 -10.9537,5.537 -6.0245,0 -24.6577,13.7041 -41.4072,30.4536 -16.7494,16.7494 -31.9315,30.4535 -33.7379,30.4535 -1.8064,0 -7.0218,3.7375 -11.5898,8.3055 -10.5556,10.5556 -45.7386,10.4519 -59.7901,-0.1761 -19.8714,-15.03 -34.2525,-10.2829 -44.2053,14.5917 -5.0002,12.4966 -10.5927,33.6757 -12.4279,47.0645 -1.8351,13.389 -5.4896,24.3435 -8.121,24.3435 -2.6314,0 -4.7844,6.2291 -4.7844,13.8425 0,7.6134 -2.4916,13.8425 -5.537,13.8425 -3.0453,0 -5.537,3.9767 -5.537,8.8371 0,13.0412 -38,90.829 -44.3708,90.829 -3.0042,0 -5.6211,4.3604 -5.8152,9.6898 -0.4484,12.3067 -46.7395,51.2173 -60.9323,51.2173 -5.8827,0 -10.6958,2.4916 -10.6958,5.537 0,3.0453 -6.2291,5.537 -13.8425,5.537 -7.6134,0 -13.8425,2.4916 -13.8425,5.537 0,3.0453 -7.475,5.537 -16.6111,5.537 -9.136,0 -16.611,-2.4917 -16.611,-5.537 z m 109.8173,-182.7755 c 1.0151,-3.0155 5.6703,-5.4827 10.3449,-5.4827 10.5774,0 37.3521,-29.2614 51.7293,-56.5337 31.6179,-59.9768 -7.178,-96.3581 -109.355,-102.5489 l -50.9721,-3.0883 -19.6247,19.6247 c -18.2079,18.2078 -19.6247,22.076 -19.6247,53.5783 0,52.1459 23.5414,94.964 56.0215,101.8941 19.889,4.2437 79.3759,-1.1907 81.4808,-7.4435 l 0,0 z"
         id="path3792"
         inkscape:connector-curvature="0" />
      <path
         style="fill:#000000;fill-opacity:1;stroke:none"
         d="m 2912.227,3357.9461 c -1.0151,-2.3967 -12.4352,-12.7803 -25.3779,-23.0747 -15.8619,-12.6161 -23.5323,-23.0165 -23.5323,-31.9077 0,-14.4151 13.4761,-43.519 25.9064,-55.9493 4.3227,-4.3227 9.2944,-15.0341 11.0482,-23.8031 1.7538,-8.7689 5.3689,-15.9436 8.0336,-15.9436 2.6647,0 4.8449,-2.6696 4.8449,-5.9325 0,-7.6364 14.0749,-21.7525 21.6892,-21.7525 10.3813,0 61.3658,46.6854 61.3658,56.1913 0,2.5937 5.0456,4.7158 11.2125,4.7158 8.0286,0 12.1558,-4.7167 14.5346,-16.6111 1.8272,-9.136 5.5024,-16.611 8.1671,-16.611 2.6647,0 4.8449,-2.5968 4.8449,-5.7707 0,-3.1739 2.4297,-8.7801 5.3995,-12.4582 2.9697,-3.6782 11.2414,-13.8913 18.3816,-22.6958 l 12.9821,-16.0083 16.201,10.4712 c 48.5658,31.3898 60.9715,60.7572 44.2082,104.6514 -5.2229,13.676 -11.6139,24.8655 -14.2022,24.8655 -2.5882,0 -6.4183,5.3952 -8.5112,11.9893 -4.777,15.0512 -27.194,37.8438 -37.22,37.8438 -4.1582,0 -17.3527,-10.8635 -29.321,-24.1412 -11.9683,-13.2776 -27.5034,-25.9472 -34.5225,-28.1545 -10.7808,-3.3904 -13.7629,-1.3618 -19.2092,13.0671 -3.546,9.3943 -8.3926,17.0805 -10.7703,17.0805 -2.3777,0 -4.3231,3.7375 -4.3231,8.3056 0,4.568 -2.4916,8.3055 -5.537,8.3055 -3.0453,0 -5.537,2.6696 -5.537,5.9325 0,11.1365 -15.7953,21.7525 -32.3651,21.7525 -9.0998,0 -17.3757,-1.961 -18.3908,-4.3578 z"
         id="path3796"
         inkscape:connector-curvature="0" />
      <path
         style="fill:#000000;fill-opacity:1;stroke:none"
         d="m 2889.6176,3339.3863 c -18.3708,-15.7375 -26.3008,-26.7098 -26.3008,-36.3906 0,-11.383 34.4924,-85.9243 44.2961,-95.728 1.5226,-1.5226 5.5146,-7.7518 8.8709,-13.8425 11.2519,-20.4184 25.9941,-16.0513 59.7428,17.6974 30.5018,30.5018 32.3976,31.5168 39.8445,21.3326 4.3004,-5.8812 7.8189,-13.9543 7.8189,-17.9402 0,-3.986 1.8834,-7.2473 4.1853,-7.2473 2.302,0 7.3388,-6.852 11.1929,-15.2267 3.8542,-8.3748 12.1012,-21.3114 18.3268,-28.7481 11.265,-13.4566 11.4083,-13.4734 29.9203,-3.504 65.7553,35.4116 67.8055,92.8965 5.973,167.4754 -15.2913,18.4434 -25.3181,16.1679 -52.9873,-12.025 -13.4496,-13.704 -28.4607,-24.9165 -33.3582,-24.9165 -4.9147,0 -19.1854,16.1262 -31.8495,35.9906 -20.7174,32.4965 -24.7133,35.9717 -41.16,35.7972 -13.1322,-0.1394 -25.554,-6.4805 -44.5157,-22.7243 z"
         id="path3798"
         inkscape:connector-curvature="0" />
      <path
         style="fill:#000000;fill-opacity:1;stroke:none"
         d="m 3001.7419,3174.0457 c 0,-3.0454 -2.5968,-5.537 -5.7707,-5.537 -6.6037,0 -17.5623,-8.3856 -34.3707,-26.3008 -6.4288,-6.852 -14.8089,-12.4582 -18.6225,-12.4582 -15.4697,0 -14.2854,-23.3377 2.8425,-56.0129 9.4393,-18.0076 17.1624,-36.4422 17.1624,-40.9657 0,-4.5235 2.4917,-8.2246 5.537,-8.2246 3.0454,0 5.537,-3.7374 5.537,-8.3055 0,-4.568 2.4917,-8.3055 5.537,-8.3055 3.0454,0 5.537,-4.9833 5.537,-11.074 0,-8.6131 3.6914,-11.074 16.611,-11.074 9.1361,0 16.6111,2.4917 16.6111,5.537 0,3.0454 2.6696,5.537 5.9325,5.537 7.276,0 15.8731,8.766 29.6056,30.1871 12.7466,19.8833 13.1832,55.9345 0.9635,79.5647 -4.8491,9.3772 -8.8166,20.9106 -8.8166,25.6299 0,4.7193 -2.4917,8.5805 -5.537,8.5805 -3.0454,0 -5.537,3.7374 -5.537,8.3055 0,4.568 -2.3238,8.3055 -5.1639,8.3055 -2.8401,0 -6.7455,4.9833 -8.6786,11.074 -3.5589,11.2131 -19.3796,15.7333 -19.3796,5.537 z"
         id="path3800"
         inkscape:connector-curvature="0" />
      <path
         style="fill:#000000;fill-opacity:1;stroke:none"
         d="m 3411.4804,3032.0103 c 0,-3.1252 -9.9381,-10.4434 -22.0845,-16.2627 -12.1465,-5.8193 -22.1131,-12.4493 -22.1481,-14.7333 -0.035,-2.284 -3.801,-4.1528 -8.369,-4.1528 -4.568,0 -8.3055,-2.3237 -8.3055,-5.1639 0,-2.8401 -4.9833,-6.7455 -11.074,-8.6786 -11.2132,-3.5589 -15.7333,-19.3795 -5.537,-19.3795 3.0453,0 5.537,-6.2291 5.537,-13.8425 0,-7.6134 2.4916,-13.8425 5.537,-13.8425 3.0454,0 5.537,-3.8227 5.537,-8.4948 0,-16.7089 41.2152,-85.4434 51.2924,-85.5404 15.7474,-0.1515 59.4477,30.4123 59.4477,41.5774 0,1.8786 4.0139,7.4296 8.9197,12.3354 6.7993,6.7993 8.0975,14.932 5.461,34.2108 -1.9023,13.9101 -5.9162,26.1216 -8.9197,27.1367 -3.0036,1.0152 -5.461,6.6214 -5.461,12.4583 0,5.8369 -2.2215,10.6126 -4.9367,10.6126 -2.7152,0 -6.3612,5.6753 -8.1021,12.6117 -3.3382,13.3004 -36.7942,48.8967 -36.7942,39.1481 z"
         id="path3802"
         inkscape:connector-curvature="0" />
      <path
         style="fill:#000000;fill-opacity:1;stroke:none"
         d="m 2376.0603,4342.3539 c 0,-3.0454 -4.0681,-5.537 -9.0403,-5.537 -27.2158,0 -40.9962,-51.0824 -26.8868,-99.6661 4.8643,-16.7495 10.245,-36.0598 11.9571,-42.9118 1.7121,-6.8521 5.3141,-12.4583 8.0045,-12.4583 2.6903,0 4.8915,-3.7375 4.8915,-8.3055 0,-4.568 2.4917,-8.3055 5.537,-8.3055 3.0454,0 5.537,-4.7757 5.537,-10.6126 0,-5.8369 3.1146,-11.6583 6.9213,-12.9364 5.483,-1.841 5.4092,-5.1632 -0.3548,-15.9872 -6.5125,-12.2292 -5.2049,-18.2081 12.4582,-56.9673 10.8539,-23.8173 19.7344,-46.7306 19.7344,-50.9184 0,-4.1878 2.4916,-7.6143 5.537,-7.6143 3.0453,0 5.537,-4.9833 5.537,-11.074 0,-6.0907 2.4916,-11.074 5.537,-11.074 3.0453,0 5.537,-6.0878 5.537,-13.5285 0,-7.5646 5.2458,-17.2029 11.8995,-21.8633 10.4975,-7.3527 13.7508,-7.3775 27.6108,-0.2102 24.0504,12.4369 60.1558,47.7925 60.1558,58.9065 0,5.4547 2.4916,9.9176 5.537,9.9176 3.3557,0 5.537,23.9936 5.537,60.907 0,36.9134 -2.1813,60.9071 -5.537,60.9071 -3.0454,0 -5.537,8.9592 -5.537,19.9094 0,18.3599 -5.0423,31.6538 -26.0511,68.6827 -4.3195,7.6134 -9.2365,18.2029 -10.9266,23.5322 -1.6901,5.3294 -5.274,9.6898 -7.9642,9.6898 -2.6901,0 -4.8912,4.0586 -4.8912,9.0192 0,15.7052 -50.6982,62.6597 -67.8283,62.8197 -8.3747,0.078 -15.2268,2.6338 -15.2268,5.6792 0,3.0453 -6.2291,5.537 -13.8425,5.537 -7.6134,0 -13.8425,-2.4917 -13.8425,-5.537 z m 80.5136,-99.8064 c 10.5339,-6.5103 19.1525,-15.3712 19.1525,-19.6908 0,-4.3197 2.4917,-7.8539 5.537,-7.8539 3.0454,0 5.537,-3.7375 5.537,-8.3056 0,-4.568 -2.1802,-8.3055 -4.8449,-8.3055 -2.6646,0 -6.3398,-7.4749 -8.167,-16.611 -1.9486,-9.7427 -6.8136,-16.611 -11.7662,-16.611 -4.6441,0 -8.4439,-2.4916 -8.4439,-5.537 0,-3.0454 -3.7375,-5.537 -8.3055,-5.537 -4.568,0 -8.3055,-2.4917 -8.3055,-5.537 0,-3.0454 -6.5622,-5.537 -14.5826,-5.537 -17.1703,0 -39.7635,23.1919 -44.501,45.6803 -1.7643,8.3747 -5.3879,15.2267 -8.0526,15.2267 -2.6647,0 -4.8449,4.9834 -4.8449,11.0741 0,6.0907 2.4917,11.074 5.537,11.074 3.0454,0 5.537,3.5962 5.537,7.9915 0,4.3954 5.6062,12.0231 12.4583,16.9505 15.4442,11.1063 41.6577,7.8433 68.0553,-8.4713 l 0,0 z"
         id="path3804"
         inkscape:connector-curvature="0" />
      <path
         style="fill:#000000;fill-opacity:1;stroke:none"
         d="m 770.32868,4597.0561 c 0,-3.0453 -6.22913,-5.537 -13.84252,-5.537 -7.61338,0 -13.84251,-2.4916 -13.84251,-5.537 0,-3.0453 -3.73748,-5.537 -8.30551,-5.537 -4.56803,0 -8.30551,-2.4916 -8.30551,-5.537 0,-3.0453 -3.11456,-5.5596 -6.92125,-5.5872 -3.8067,-0.028 -12.42045,-6.8797 -19.14168,-15.2268 -6.72123,-8.3471 -18.55658,-22.4161 -26.30077,-31.2645 -7.7442,-8.8484 -14.08036,-20.6838 -14.08036,-26.3008 0,-5.617 -2.49166,-10.2128 -5.53701,-10.2128 -3.04535,0 -5.53701,-6.0215 -5.53701,-13.3811 0,-7.3595 -2.93135,-14.3582 -6.51412,-15.5524 -4.62959,-1.5433 -6.51412,-27.6127 -6.51412,-90.1121 0,-62.4994 1.88453,-88.5688 6.51412,-90.112 3.58277,-1.1943 6.51412,-10.6846 6.51412,-21.0895 0,-10.405 2.49166,-18.9181 5.53701,-18.9181 3.04535,0 5.53701,-6.1119 5.53701,-13.582 0,-7.4701 2.80189,-20.5513 6.22642,-29.0693 3.42454,-8.518 8.06248,-20.4706 10.30653,-26.5613 2.24406,-6.0907 8.16295,-20.5022 13.1531,-32.0256 4.99014,-11.5234 9.07298,-25.8504 9.07298,-31.8378 0,-5.9874 2.49166,-10.8862 5.53701,-10.8862 3.04535,0 5.53701,-4.9833 5.53701,-11.074 0,-6.0907 2.49165,-11.074 5.537,-11.074 3.04535,0 5.53701,-4.6078 5.53701,-10.2396 0,-5.6317 8.72078,-26.6729 19.37952,-46.7582 10.65873,-20.0852 19.37952,-40.394 19.37952,-45.1304 0,-4.7366 2.49165,-8.6119 5.537,-8.6119 3.04536,0 5.53701,-3.7375 5.53701,-8.3055 0,-4.568 1.86874,-8.325 4.15275,-8.3487 4.82356,-0.05 17.99527,-26.7364 17.99527,-36.4588 0,-3.6351 3.73748,-8.0435 8.30551,-9.7964 12.48278,-4.7901 10.41546,12.9813 -5.48292,47.1328 -7.58363,16.2905 -13.81276,33.9795 -13.84251,39.3089 -0.0298,5.3293 -2.54574,9.6897 -5.5911,9.6897 -3.04535,0 -5.537,4.9833 -5.537,11.074 0,6.0907 -2.49165,11.0741 -5.53701,11.0741 -3.04535,0 -5.537,4.6541 -5.537,10.3426 0,5.6884 -8.72079,27.3717 -19.37952,48.1852 -10.65874,20.8134 -19.37952,43.5674 -19.37952,50.5645 0,6.997 -2.49166,12.7218 -5.53701,12.7218 -3.04535,0 -5.537,6.2291 -5.537,13.8425 0,7.6134 -2.49166,13.8425 -5.53701,13.8425 -3.04535,0 -5.53701,6.067 -5.53701,13.4821 0,7.4151 -2.6721,20.4963 -5.938,29.0692 -12.54707,32.936 -2.75213,151.2439 12.52178,151.2439 2.46963,0 4.49024,3.7375 4.49024,8.3055 0,4.568 2.32374,8.3055 5.16387,8.3055 2.84014,0 6.74553,4.9833 8.67864,11.074 1.93311,6.0907 5.94269,11.074 8.91015,11.074 2.96747,0 10.74435,4.9833 17.28196,11.0741 6.53761,6.0907 15.9017,11.074 20.8091,11.074 4.9074,0 12.03927,3.1145 15.8486,6.9212 4.89628,4.8929 29.15552,6.8389 82.77823,6.6401 64.78997,-0.2403 80.2935,-2.0567 106.30572,-12.4555 16.74944,-6.6958 34.26391,-12.1755 38.92091,-12.1771 4.6571,0 12.0592,-4.986 16.4491,-11.0768 4.39,-6.0907 10.6624,-11.074 13.9387,-11.074 13.4462,0 80.1904,-62.7309 80.1904,-75.3686 0,-4.2275 2.4917,-7.6865 5.537,-7.6865 3.0454,0 5.537,-3.7374 5.537,-8.3055 0,-4.568 2.1707,-8.3055 4.8237,-8.3055 6.1769,0 13.0897,-51.0704 8.5235,-62.9697 -1.9018,-4.9563 -8.1747,-9.0113 -13.9395,-9.0113 -5.7649,0 -10.4817,-1.9911 -10.4817,-4.4247 0,-2.4336 -8.3757,-7.4534 -18.6127,-11.1551 -10.2369,-3.7018 -25.8098,-12.9201 -34.6062,-20.4851 -8.7965,-7.5651 -17.5601,-13.7577 -19.4746,-13.7614 -1.9146,0 -6.7042,-7.7883 -10.6437,-17.299 -5.3991,-13.0345 -5.7534,-23.6003 -1.4389,-42.9118 7.0565,-31.5849 25.1797,-80.3417 30.7903,-82.8353 2.284,-1.0151 4.1528,-6.6214 4.1528,-12.4582 0,-5.837 2.4916,-10.6127 5.537,-10.6127 3.0453,0 5.537,-2.5968 5.537,-5.7707 0,-6.6037 8.3856,-17.5623 26.3008,-34.3707 6.852,-6.4288 12.4582,-13.9263 12.4582,-16.6613 0,-4.9325 32.4735,-36.6748 56.6343,-55.359 28.3148,-21.8967 35.1635,-25.9192 44.4161,-26.0873 5.3294,-0.097 9.6898,-2.6678 9.6898,-5.7131 0,-3.0454 8.7207,-5.537 19.3795,-5.537 10.6587,0 19.3795,-2.4917 19.3795,-5.537 0,-3.0454 12.4583,-5.537 27.685,-5.537 15.2268,0 27.685,2.4916 27.685,5.537 0,3.0453 8.7208,5.537 19.3796,5.537 10.6587,0 19.3795,-2.4917 19.3795,-5.537 0,-3.0454 3.961,-5.537 8.8022,-5.537 25.799,0 38.1914,-47.9647 20.2671,-78.4436 -9.9797,-16.9696 -12.9294,-17.3761 -49.8331,-6.8675 -13.315,3.7915 -16.7346,-4.1994 -6.8353,-15.973 32.811,-39.0227 61.8682,-59.2891 85.0069,-59.2891 8.0153,0 14.5733,-2.4916 14.5733,-5.537 0,-3.0453 8.7207,-5.537 19.3795,-5.537 10.6587,0 19.3795,2.4917 19.3795,5.537 0,3.0454 6.3529,5.537 14.1175,5.537 20.6675,0 46.5037,15.1382 52.4274,30.7187 6.1976,16.3008 0.5859,32.3476 -19.0877,54.5819 -7.8293,8.8484 -14.2352,18.1921 -14.2352,20.7637 0,2.5717 11.2125,4.6758 24.9166,4.6758 13.704,0 24.9165,-2.4916 24.9165,-5.537 0,-3.0453 4.0278,-5.537 8.9507,-5.537 4.9229,0 23.2513,-14.327 40.7298,-31.8378 48.2729,-48.3621 72.1736,-67.8283 83.2799,-67.8283 5.5434,0 11.3357,-3.1146 12.8717,-6.9212 2.2342,-5.5371 2.8802,-5.5371 3.2299,0 0.2403,3.8066 4.2984,6.9212 9.0176,6.9212 4.7193,0 15.903,3.7866 24.8527,8.4147 15.6136,8.0741 16.9471,7.7697 32.9471,-7.5207 9.1711,-8.7645 16.6748,-18.7802 16.6748,-22.2572 0,-3.477 2.4917,-6.3218 5.537,-6.3218 3.0454,0 5.537,-3.7375 5.537,-8.3055 0,-4.5681 2.4917,-8.3055 5.537,-8.3055 3.0454,0 5.537,-2.6994 5.537,-5.9987 0,-3.2992 9.0575,-14.7946 20.1277,-25.5452 18.4396,-17.9074 22.0384,-19.2361 42.9118,-15.8443 72.0764,11.712 72.6165,11.6484 86.074,-10.1264 6.7996,-11.0019 14.6513,-20.0035 17.4483,-20.0035 2.797,0 5.0854,-4.4333 5.0854,-9.8517 0,-5.4184 4.9833,-13.4434 11.074,-17.8333 6.0907,-4.39 11.1218,-10.5462 11.1802,-13.6806 0.059,-3.1345 8.7793,-15.6383 19.3796,-27.7865 10.6003,-12.1481 19.2733,-23.9834 19.2733,-26.3007 0,-6.8509 40.6046,-45.0837 56.9225,-53.5978 8.2822,-4.3212 15.0586,-9.8001 15.0586,-12.1753 0,-2.3751 13.6054,-8.6071 30.2343,-13.8489 25.7241,-8.1088 33.6644,-8.5029 53.2271,-2.6418 14.382,4.3089 24.0371,10.8825 25.7815,17.5531 1.5338,5.8654 4.9898,10.6643 7.68,10.6643 2.6901,0 4.8912,14.95 4.8912,33.2221 0,18.4567 -2.4609,33.222 -5.537,33.222 -3.0454,0 -5.537,6.0226 -5.537,13.3835 0,16.2302 -18.8696,61.6471 -30.4059,73.1834 -4.5943,4.5943 -8.3532,13.1585 -8.3532,19.0317 0,5.8732 -2.4916,10.6785 -5.537,10.6785 -3.0453,0 -5.5682,3.1146 -5.6064,6.9213 -0.1019,10.1464 -74.8695,81.5206 -107.305,102.4346 -15.3498,9.8974 -32.3532,17.9953 -37.7853,17.9953 -5.4321,0 -9.8764,2.4916 -9.8764,5.537 0,3.0453 -9.9667,5.537 -22.1481,5.537 -12.1814,0 -22.148,2.4916 -22.148,5.537 0,3.0761 -14.7654,5.537 -33.222,5.537 -18.4567,0 -33.2221,-2.4609 -33.2221,-5.537 0,-3.0454 -7.4749,-5.537 -16.611,-5.537 -9.136,0 -16.611,-2.4917 -16.611,-5.537 0,-3.0454 -3.9048,-5.537 -8.6773,-5.537 -4.7726,0 -16.7617,-8.572 -26.6427,-19.0488 l -17.9653,-19.0488 -17.6534,19.2351 c -9.7093,10.5794 -17.6534,20.3999 -17.6534,21.8235 0,4.2477 -45.5942,47.1772 -56.047,52.7713 -13.0281,6.9725 -34.5991,6.5242 -51.2558,-1.065 -17.9652,-8.1855 -36.9961,-2.9552 -57.7537,15.8728 -9.2674,8.4059 -23.8852,20.7082 -32.484,27.3384 -8.5988,6.6303 -21.1362,17.2198 -27.861,23.5323 -6.7247,6.3125 -14.6149,11.4773 -17.5338,11.4773 -2.9189,0 -6.3394,3.0969 -7.6011,6.8819 -1.6764,5.0293 -18.8923,6.5742 -63.9517,5.7386 -59.5532,-1.1043 -62.2783,-0.6343 -79.8383,13.7704 -9.9992,8.2025 -22.2102,19.3243 -27.1355,24.7149 -4.9252,5.3907 -11.7773,9.8012 -15.2268,9.8012 -3.4494,0 -6.2717,2.0302 -6.2717,4.5115 0,2.4813 -8.755,8.6864 -19.4554,13.7891 -17.5465,8.3674 -21.757,8.4759 -42.9118,1.1062 -12.9011,-4.4944 -38.6866,-8.2078 -57.3014,-8.2522 -29.5314,-0.07 -36.5882,2.0961 -55.37,16.9974 -30.8658,24.4888 -57.5157,54.8116 -57.5157,65.4425 0,9.5776 18.3307,28.2197 27.7484,28.2197 3.0105,0 5.4737,2.4916 5.4737,5.537 0,3.0453 3.3256,5.537 7.3902,5.537 4.0647,0 14.0313,7.4533 22.148,16.563 14.3165,16.0678 14.7578,18.6346 14.7578,85.8236 0,42.4824 -2.1408,69.2606 -5.537,69.2606 -3.0453,0 -5.537,8.9688 -5.537,19.9307 0,10.9619 -8.7208,40.0546 -19.3795,64.6505 -10.6588,24.5959 -19.3795,48.0185 -19.3795,52.0504 0,4.0317 -2.4917,7.3305 -5.537,7.3305 -3.0454,0 -5.5371,4.7757 -5.5371,10.6126 0,5.8369 -1.8687,11.4431 -4.1527,12.4583 -2.284,1.0151 -9.8274,13.1573 -16.7632,26.9828 -6.9357,13.8255 -18.771,31.7812 -26.3007,39.9017 -7.5297,8.1204 -13.6904,16.411 -13.6904,18.4236 0,3.0364 -31.5942,37.9713 -52.6016,58.1636 -17.1699,16.5037 -40.65014,33.7962 -53.98577,39.7588 -8.37472,3.7445 -15.22677,8.6915 -15.22677,10.9935 0,2.3019 -4.9833,4.1853 -11.07401,4.1853 -6.0907,0 -11.07401,2.4917 -11.07401,5.537 0,3.0454 -6.22913,5.537 -13.84251,5.537 -7.61339,0 -13.84252,2.4917 -13.84252,5.537 0,3.3838 -25.83936,5.5371 -66.44406,5.5371 -40.60471,0 -66.44407,-2.1533 -66.44407,-5.5371 z M 2095.8152,3571.197 c 21.662,-9.5715 43.1228,-21.2615 47.6909,-25.9779 4.568,-4.7163 15.1575,-12.0937 23.5322,-16.3942 8.3748,-4.3005 15.2268,-11.1356 15.2268,-15.189 0,-4.0534 2.4917,-7.3699 5.537,-7.3699 8.765,0 6.4434,-16.4956 -3.7572,-26.6962 -7.0713,-7.0713 -19.3644,-9.2943 -51.3972,-9.2943 -46.0866,0 -42.8758,-1.7141 -95.7845,51.1358 -32.8661,32.8296 -37.3193,38.5927 -37.3193,48.2966 0,4.6966 -2.4916,8.5392 -5.537,8.5392 -3.0453,0 -5.537,4.0593 -5.537,9.0207 0,13.9873 59.4675,5.0844 107.3453,-16.0708 z"
         id="path3806"
         inkscape:connector-curvature="0" />
      <path
         style="fill:#000000;fill-opacity:1;stroke:none"
         d="m 1611.9535,3274.5837 c 0,-2.5658 -8.7207,-9.3615 -19.3795,-15.1016 -10.6587,-5.7401 -19.3795,-12.3616 -19.3795,-14.7145 0,-2.3528 -3.8417,-4.2778 -8.537,-4.2778 -4.6954,0 -13.7215,-4.8301 -20.0581,-10.7335 -11.4597,-10.6763 -11.4658,-10.8901 -1.1527,-40.1433 5.7025,-16.1754 12.237,-30.2404 14.521,-31.2555 2.284,-1.0151 4.1528,-6.4137 4.1528,-11.9968 0,-5.5832 1.8687,-10.9818 4.1527,-11.9969 2.2841,-1.0151 9.1361,-11.8123 15.2268,-23.9937 16.0713,-32.1425 32.4293,-32.3055 65.4656,-0.6522 14.2422,13.6461 25.895,27.4732 25.895,30.7269 0,3.2537 2.4916,5.9159 5.537,5.9159 3.0454,0 5.537,7.4749 5.537,16.611 0,9.136 -2.4916,16.611 -5.537,16.611 -3.0454,0 -5.537,4.8661 -5.537,10.8135 0,12.2921 -11.1244,39.0196 -16.2407,39.0196 -1.864,0 -8.2922,9.3437 -14.2849,20.7637 -10.813,20.6058 -18.2476,28.8216 -26.2287,28.9845 -2.284,0.047 -4.1528,-2.0145 -4.1528,-4.5803 z"
         id="path3808"
         inkscape:connector-curvature="0" />
      <path
         style="fill:#000000;fill-opacity:1;stroke:none"
         d="m 1011.4964,3547.5982 c -7.5059,-7.5059 -15.81771,-13.6471 -18.47064,-13.6471 -9.97975,0 -28.90188,-26.1821 -28.90188,-39.9908 0,-14.2691 36.49642,-88.4447 45.25392,-91.9745 2.5185,-1.0152 4.5791,-6.5739 4.5791,-12.3528 0,-6.7043 5.2235,-11.8181 14.4325,-14.1294 12.4174,-3.1166 18.5196,0.7342 43.7039,27.5795 16.0993,17.161 31.8683,31.2019 35.0422,31.2019 3.1739,0 8.9242,-8.7208 12.7785,-19.3796 3.8542,-10.6587 8.9988,-19.3795 11.4324,-19.3795 2.4335,0 4.4246,-3.7375 4.4246,-8.3055 0,-4.568 2.2216,-8.3055 4.9368,-8.3055 2.7152,0 6.5002,-6.2291 8.411,-13.8425 3.3533,-13.3608 10.6037,-16.4113 33.2278,-13.9804 12.4515,1.3378 17.1852,5.9551 38.9476,37.99 20.4612,30.1194 20.3494,52.0057 -0.447,87.5506 -17.361,29.6729 -41.6581,57.3185 -50.3761,57.3185 -3.0957,0 -17.3309,-11.2125 -31.6338,-24.9166 -14.3028,-13.704 -28.3188,-24.9165 -31.1467,-24.9165 -2.8279,0 -5.1416,-2.6696 -5.1416,-5.9325 0,-3.2629 -3.7375,-2.195 -8.3055,2.373 -4.568,4.568 -8.3055,12.221 -8.3055,17.0065 0,4.7856 -2.4917,8.701 -5.537,8.701 -3.0454,0 -5.537,2.5969 -5.537,5.7707 0,3.1739 -2.5379,8.7801 -5.6397,12.4583 -3.1018,3.6782 -9.9538,11.8438 -15.2267,18.1459 -15.6386,18.6909 -27.3962,20.0623 -42.5012,4.9573 l 0,0 z"
         id="path3810"
         inkscape:connector-curvature="0" />
      <path
         style="fill:#000000;fill-opacity:1;stroke:none"
         d="m 995.08497,3536.4154 c -39.56041,-32.2257 -40.25039,-44.1961 -6.00339,-104.1518 13.68142,-23.9519 24.87532,-45.7064 24.87532,-48.3433 0,-2.6369 6.4507,-6.4134 14.3348,-8.3922 12.2001,-3.062 19.1267,1.1441 46.5135,28.2452 29.2614,28.9561 32.7038,30.9041 37.9705,21.4875 3.1855,-5.6954 10.9241,-19.0761 17.1969,-29.7349 6.2729,-10.6587 14.2811,-24.9857 17.7961,-31.8378 10.2732,-20.0262 39.4969,-18.3797 58.9708,3.3226 22.7171,25.3167 34.6834,57.4773 28.8952,77.6593 -9.4045,32.7919 -50.0593,89.2811 -64.2547,89.2811 -3.7711,0 -15.1946,-7.3232 -25.3855,-16.2736 -44.7192,-39.276 -44.8012,-39.3273 -52.5834,-32.8687 -4.1102,3.4112 -7.4731,9.6346 -7.4731,13.8297 0,4.1951 -2.4917,7.6275 -5.537,7.6275 -3.0454,0 -5.537,3.2506 -5.537,7.2235 0,8.8105 -35.2547,48.1466 -43.151,48.1466 -3.1168,0 -19.5994,-11.3493 -36.62803,-25.2207 z"
         id="path3812"
         inkscape:connector-curvature="0" />
      <path
         style="fill:#000000;fill-opacity:1;stroke:none"
         d="m 404.88631,4342.3539 c 0,-3.0454 -4.03062,-5.537 -8.95692,-5.537 -14.78962,0 -51.95015,-41.1213 -51.95015,-57.4871 0,-7.9717 -2.49165,-14.494 -5.537,-14.494 -3.48041,0 -5.53701,-35.9905 -5.53701,-96.8976 0,-60.9071 2.0566,-96.8976 5.53701,-96.8976 3.22992,0 5.537,-18.4567 5.537,-44.296 0,-25.8394 2.30709,-44.2961 5.53701,-44.2961 3.09511,0 5.56023,-15.2618 5.58966,-34.6063 0.0764,-50.2217 35.96508,-236.707 45.55373,-236.707 2.32467,0 4.22667,-6.2291 4.22667,-13.8425 0,-7.6134 2.49165,-13.8425 5.537,-13.8425 3.04535,0 5.6253,-5.6062 5.73321,-12.4582 0.10792,-6.8521 3.66522,-18.6874 7.90511,-26.3008 13.93293,-25.0187 14.78313,-0.7699 3.11135,88.7405 -6.14444,47.1213 -11.18091,100.0022 -11.19218,117.5129 -0.0113,17.5202 -2.5105,31.8378 -5.55749,31.8378 -3.22992,0 -5.537,18.4567 -5.537,44.2961 0,25.8393 -2.30709,44.296 -5.53701,44.296 -3.44525,0 -5.53701,31.3764 -5.53701,83.0551 0,51.6787 2.09176,83.0551 5.53701,83.0551 3.04535,0 5.53701,2.9376 5.53701,6.5281 0,8.9198 38.23696,43.3049 48.156,43.3049 12.67726,0 20.52723,-11.4939 31.06925,-45.4916 5.39758,-17.407 12.22716,-33.1407 15.17686,-34.9637 8.4261,-5.2076 27.41201,2.8377 27.41201,11.6159 0,4.3628 2.49165,7.9324 5.53701,7.9324 3.28119,0 5.537,20.3023 5.537,49.833 0,29.5307 -2.25581,49.8331 -5.537,49.8331 -3.04536,0 -5.53701,7.4749 -5.53701,16.611 0,9.136 -1.99111,16.611 -4.42469,16.611 -2.43357,0 -7.44175,8.3436 -11.12928,18.5412 -8.18395,22.6324 -46.22075,58.9769 -61.7229,58.9769 -6.22337,0 -11.31522,2.4916 -11.31522,5.537 0,3.0453 -7.47496,5.537 -16.61102,5.537 -9.13606,0 -16.61101,-2.4917 -16.61101,-5.537 z"
         id="path3814"
         inkscape:connector-curvature="0" />
      <path
         style="fill:#000000;fill-opacity:1;stroke:none"
         d="m -843.70846,4366.7545 c -36.62955,-3.6821 -113.50862,-21.0537 -113.50862,-25.6484 0,-2.3591 -2.4727,-4.2892 -5.49489,-4.2892 -9.97733,0 -33.26415,-23.9564 -33.26415,-34.2206 0,-5.5415 -2.49165,-10.0755 -5.53698,-10.0755 -3.0454,0 -5.537,-9.9666 -5.537,-22.148 0,-12.1814 -2.4917,-22.148 -5.537,-22.148 -3.0454,0 -5.537,-12.4583 -5.537,-27.685 0,-15.2268 2.4916,-27.6851 5.537,-27.6851 3.2812,0 5.537,-20.3023 5.537,-49.833 0,-27.4082 2.3183,-49.8331 5.1519,-49.8331 2.83352,0 6.12156,-5.6062 7.30674,-12.4582 1.91652,-11.0803 2.59942,-10.6209 6.17386,4.1527 15.6286,64.5951 20.37808,71.8998 60.68287,93.33 45.52996,24.2085 75.59643,27.1717 244.24391,24.0706 141.38166,-2.5997 161.38223,-4.1779 221.83574,-17.5044 36.54424,-8.0559 74.54194,-16.0897 84.43934,-17.8528 9.8974,-1.7632 17.99527,-5.3714 17.99527,-8.0183 0,-2.6469 7.47496,-4.8125 16.61102,-4.8125 9.13605,0 16.61101,-2.1732 16.61101,-4.8293 0,-2.6562 9.96418,-6.4227 22.14254,-8.3701 12.17843,-1.9474 35.90527,-10.9866 52.72636,-20.0872 16.82109,-9.1005 34.26515,-16.5465 38.76452,-16.5465 4.49937,0 8.18071,-2.4916 8.18071,-5.537 0,-3.0453 3.73747,-5.537 8.3055,-5.537 4.56803,0 8.30551,-2.4916 8.30551,-5.537 0,-3.0453 4.77567,-5.537 10.61262,-5.537 5.83689,0 11.4431,-1.8687 12.45826,-4.1527 2.02261,-4.5509 46.86427,-34.6063 51.63141,-34.6063 5.64836,0 69.25986,-68.425 69.25986,-74.5008 0,-3.3603 4.983305,-9.7014 11.074011,-14.0913 6.090706,-4.3899 11.074011,-10.118 11.074011,-12.729 0,-2.611 8.720784,-22.8785 19.3795198,-45.0389 11.2344183,-23.3574 19.3795202,-48.7744 19.3795202,-60.4745 0,-11.1005 2.491652,-20.1827 5.537005,-20.1827 3.045353,0 5.537006,-8.7208 5.537006,-19.3796 0,-10.6587 2.491652,-19.3795 5.537005,-19.3795 3.045354,0 5.537006,-8.7208 5.537006,-19.3795 0,-10.6587 2.491653,-19.3795 5.537006,-19.3795 3.045353,0 5.537005,-3.8754 5.537005,-8.6119 0,-4.7365 8.720784,-25.0452 19.37952,-45.1305 10.658736,-20.0852 19.37952,-41.1264 19.37952,-46.7582 0,-5.6317 2.491652,-10.2395 5.537005,-10.2395 3.045353,0 5.53701,-4.9833 5.53701,-11.0741 0,-6.0907 2.49165,-11.074 5.537,-11.074 3.04535,0 5.53701,9.9666 5.53701,22.1481 0,12.1814 -2.49166,22.148 -5.53701,22.148 -3.04535,0 -5.537,12.4582 -5.537,27.685 0,15.2268 -2.26104,27.685 -5.02456,27.685 -2.763519,0 -6.114847,13.0812 -7.447383,29.0693 -1.332591,15.9881 -9.227032,62.7066 -17.543227,103.8189 -12.32244,60.9178 -15.69132,95.3966 -18.205896,186.3301 -1.697037,61.3693 -1.441283,118.1316 0.568373,126.1386 6.981057,27.8148 54.184863,45.1096 82.199343,30.1167 14.94227,-7.9969 34.26565,-27.3202 42.26252,-42.2625 3.87845,-7.2469 6.25388,-44.8642 6.26701,-99.2425 0.0221,-86.013 9.58162,-172.1023 21.60932,-194.5763 3.33001,-6.2222 6.05461,-16.4602 6.05461,-22.7511 0,-6.2909 2.49165,-11.4381 5.537,-11.4381 3.04536,0 5.53701,-4.9833 5.53701,-11.074 0,-6.0907 2.49165,-11.074 5.53701,-11.074 3.04535,0 5.537,-3.5355 5.537,-7.8568 0,-12.5843 18.69288,-41.9029 26.74075,-41.9412 5.10678,-0.024 6.39613,4.6282 4.21001,15.1917 -5.74537,27.7626 -14.33038,136.3543 -14.33609,181.337 -0.003,24.3628 -3.74263,63.8255 -8.3101,87.6949 -4.56753,23.8694 -8.30457,51.9005 -8.30457,62.2913 0,10.3908 -2.49165,18.8924 -5.537,18.8924 -3.04536,0 -5.53701,7.475 -5.53701,16.6111 0,9.136 -2.49165,16.611 -5.53701,16.611 -3.04535,0 -5.537,5.0171 -5.537,11.1491 0,6.132 -2.33939,15.4757 -5.19859,20.7638 -11.80135,21.8261 -33.56045,75.163 -33.56045,82.2648 0,4.2 -2.49165,7.6364 -5.53701,7.6364 -3.04535,0 -5.537,2.4632 -5.537,5.4737 0,9.9876 -45.84248,60.9704 -54.82306,60.9704 -3.34618,0 -6.084,2.4916 -6.084,5.537 0,3.0453 -3.737483,5.537 -8.305512,5.537 -4.56803,0 -8.305509,2.4916 -8.305509,5.537 0,3.0453 -6.229131,5.537 -13.842514,5.537 -7.613383,0 -13.842514,-2.4917 -13.842514,-5.537 0,-3.0454 -3.737479,-5.537 -8.305509,-5.537 -4.568029,0 -8.305508,-2.3238 -8.305508,-5.1639 0,-2.8401 -4.674395,-6.6475 -10.387533,-8.4608 -5.820002,-1.8472 -17.360783,-18.4453 -26.2462929,-37.7479 -14.2601701,-30.9783 -15.8585381,-40.3115 -15.8563781,-92.5896 0.0013,-31.9762 3.4346597,-84.7237 7.629772,-117.2167 4.1950569,-32.4931 5.99480524,-63.3328 3.9993791,-68.5327 -3.1793486,-8.2853 -5.3279283,-7.6203 -17.3740161,5.3776 -7.560283,8.1577 -13.746004,18.4413 -13.746004,22.8525 0,4.4111 -1.86874,8.0372 -4.152754,8.058 -2.284015,0.021 -10.381886,9.2242 -17.995269,20.4521 -7.613383,11.2278 -19.448732,26.0474 -26.300777,32.9325 -6.852044,6.885 -12.458262,14.2002 -12.458262,16.2559 0,2.0556 -14.326999,17.2434 -31.837779,33.7505 -17.51078,16.5071 -38.09383,36.1175 -45.74004,43.5786 -7.64628,7.4612 -16.98997,13.5657 -20.76378,13.5657 -3.77385,0 -6.86151,2.4917 -6.86151,5.5371 0,3.0453 -3.73748,5.537 -8.30551,5.537 -4.56803,0 -8.30551,1.925 -8.30551,4.2778 0,2.3528 -8.90848,9.0754 -19.79662,14.9391 -10.88813,5.8636 -24.9735,15.151 -31.30075,20.6386 -6.32724,5.4877 -16.1062,9.9775 -21.73092,9.9775 -5.62471,0 -10.22679,2.4917 -10.22679,5.537 0,3.0454 -6.22913,5.537 -13.84251,5.537 -7.61339,0 -13.84252,2.2012 -13.84252,4.8915 0,2.6904 -5.60622,6.1662 -12.45826,7.7241 -6.85205,1.5578 -33.63731,10.52 -59.52281,19.9157 -25.8855,9.3958 -53.91659,17.1324 -62.29131,17.1925 -8.37473,0.06 -15.22677,2.6009 -15.22677,5.6463 0,3.0453 -9.96661,5.537 -22.14802,5.537 -12.18141,0 -22.14803,2.4916 -22.14803,5.537 0,3.0453 -8.09787,5.5805 -17.99526,5.6337 -9.8974,0.055 -40.42014,3.8561 -67.82832,8.4509 -49.36751,8.2763 -195.42706,14.6047 -238.09124,10.316 z"
         id="path3816"
         inkscape:connector-curvature="0" />
      <path
         style="fill:#000000;fill-opacity:1;stroke:none"
         d="m 122.49902,3565.2518 c 0,-4.102 4.90933,-13.1188 10.90962,-20.0372 6.00029,-6.9184 12.52806,-17.6782 14.50615,-23.9106 1.97809,-6.2324 8.90411,-17.0017 15.39116,-23.9318 30.31467,-32.3853 60.09319,-61.5316 75.76982,-74.1612 9.45013,-7.6134 25.56482,-21.3175 35.81042,-30.4536 10.2456,-9.136 26.86835,-23.3858 36.93945,-31.6662 23.57802,-19.3855 42.82909,-35.4968 58.4965,-48.9559 6.8752,-5.9062 13.8405,-10.7385 15.47845,-10.7385 1.63793,0 8.72772,-5.6062 15.75507,-12.4582 19.00681,-18.5327 41.76976,-37.3748 45.15199,-37.3748 1.63793,0 8.6168,-5.6062 15.50858,-12.4583 6.89178,-6.852 22.04807,-19.9332 33.68065,-29.0693 11.63257,-9.136 27.98443,-22.8401 36.33746,-30.4535 8.35303,-7.6134 24.43018,-21.3175 35.727,-30.4535 36.3825,-29.4236 52.67347,-43.7109 83.654,-73.3654 16.70303,-15.9881 31.77272,-29.0692 33.48813,-29.0692 3.51872,0 26.56999,-21.1123 74.05801,-67.8284 17.80014,-17.5107 33.82446,-31.8377 35.60964,-31.8377 2.69608,0 24.28,-21.4701 90.33138,-89.8551 31.5565,-32.6714 45.78229,-44.8958 48.76967,-41.9084 3.69855,3.6985 -30.46217,72.3086 -37.57661,75.4706 -2.28402,1.0151 -4.15276,5.3755 -4.15276,9.6897 0,4.3143 -2.49165,7.8441 -5.537,7.8441 -3.04536,0 -5.53701,2.6697 -5.53701,5.9325 0,3.2629 -3.11457,9.292 -6.92126,13.398 -3.80669,4.106 -11.90456,13.9208 -17.99526,21.8106 -6.09071,7.8899 -18.00889,22.417 -26.48489,32.2824 -8.47599,9.8654 -22.18008,25.9483 -30.45353,35.7398 -21.93988,25.9654 -47.77705,51.878 -70.58342,70.7894 -11.01764,9.1361 -22.96146,19.8449 -26.54175,23.7975 -3.58028,3.9525 -9.90897,10.1817 -14.06371,13.8425 -4.15481,3.6608 -15.94614,14.7539 -26.20299,24.6513 -10.25683,9.8974 -20.0519,17.9953 -21.7668,17.9953 -1.7149,0 -9.04322,5.6062 -16.28514,12.4583 -7.24193,6.852 -22.30096,19.9332 -33.46452,29.0692 -11.16356,9.1361 -27.36662,22.8402 -36.0068,30.4536 -8.64018,7.6133 -22.912,19.3664 -31.71516,26.1178 -8.80317,6.7514 -23.91375,19.8325 -33.57908,29.0692 -9.66532,9.2367 -19.85897,16.794 -22.65255,16.794 -2.79358,0 -16.61598,11.2125 -30.71646,24.9166 -14.10047,13.7041 -27.92495,24.9165 -30.72108,24.9165 -2.79613,0 -15.78166,9.9355 -28.85675,22.079 -13.07509,12.1435 -25.37812,22.1101 -27.34008,22.148 -1.96195,0.039 -11.27948,6.9211 -20.70562,15.2958 -9.42614,8.3747 -23.59379,20.2101 -31.48367,26.3008 -7.88987,6.0907 -17.70467,14.1886 -21.81066,17.9952 -4.10599,3.8067 -8.97828,6.9213 -10.8273,6.9213 -1.84903,0 -8.87905,5.0414 -15.62227,11.2032 -35.58051,32.5125 -57.28112,49.4603 -63.47771,49.5754 -3.80669,0.071 -6.92126,2.6201 -6.92126,5.6655 0,3.0453 -3.73747,5.537 -8.3055,5.537 -4.56803,0 -8.30551,1.9544 -8.30551,4.3431 0,4.2624 -28.98523,23.3419 -35.4606,23.3419 -1.81414,0 -3.29844,-3.3563 -3.29844,-7.4583 z"
         id="path3818"
         inkscape:connector-curvature="0" />
      <path
         style="fill:#000000;fill-opacity:1;stroke:none"
         d="m -1237.6478,4263.5438 c 1.8388,-16.0388 5.7064,-42.8656 8.5946,-59.6151 2.8883,-16.7494 5.6152,-82.7782 6.0598,-146.7306 0.4447,-63.9524 2.903,-128.7354 5.4631,-143.9621 9.4122,-55.9835 19.3302,-96.8976 23.4888,-96.8976 2.3486,0 4.2702,-6.2292 4.2702,-13.8426 0,-7.6133 2.4916,-13.8425 5.537,-13.8425 3.0453,0 5.498,-3.1145 5.4504,-6.9212 -0.1309,-10.4667 29.3809,-65.0598 35.1699,-65.0598 2.783,0 3.4524,8.038 1.4875,17.8623 -1.9648,9.8243 -5.9601,81.4593 -8.8784,159.1889 -2.9183,77.7296 -6.6923,156.2765 -8.3868,174.5486 -4.1088,44.3066 -20.8115,126.8848 -26.1321,129.1968 -2.3361,1.0151 -4.2475,7.8672 -4.2475,15.2268 0,7.3596 -2.4917,13.3811 -5.537,13.3811 -3.0454,0 -5.537,3.8667 -5.537,8.5927 0,12.0111 -23.3269,51.507 -32.5311,55.08 -6.1152,2.3738 -6.9563,-2.7862 -4.2714,-26.2057 z"
         id="path3820"
         inkscape:connector-curvature="0" />
      <path
         style="fill:#000000;fill-opacity:1;stroke:none"
         d="m -2468.8196,4586.3776 c 0,-5.5161 4.0361,-9.8635 35.0658,-37.7703 11.005,-9.8974 22.5672,-17.9952 25.6937,-17.9952 3.1265,0 5.6845,-2.4917 5.6845,-5.537 0,-3.0454 3.7375,-5.537 8.3056,-5.537 4.568,0 8.3055,-2.4917 8.3055,-5.537 0,-3.0454 2.5968,-5.537 5.7707,-5.537 3.1739,0 8.7801,-2.5379 12.4582,-5.6397 3.6782,-3.1018 12.9167,-10.654 20.5301,-16.7826 36.4172,-29.3152 51.9409,-42.9655 72.1027,-63.4013 28.177,-28.56 58.3595,-62.269 73.6275,-82.2301 6.6409,-8.6822 17.6807,-21.6502 24.5327,-28.8176 6.8521,-7.1673 12.4583,-15.4585 12.4583,-18.4248 0,-2.9662 3.1146,-8.753 6.9212,-12.8594 11.7833,-12.7109 31.8378,-42.4725 31.8378,-47.2483 0,-2.4963 4.9833,-8.1306 11.074,-12.5205 6.0907,-4.39 11.1319,-11.7921 11.2025,-16.4491 0.071,-4.6571 8.7915,-18.0863 19.3795,-29.8426 10.5881,-11.7564 19.2511,-24.8375 19.2511,-29.0693 0,-4.2318 2.4916,-7.6941 5.537,-7.6941 3.0454,0 5.537,-2.4632 5.537,-5.4737 0,-5.4229 5.213,-12.4084 34.5178,-46.2546 8.3261,-9.6164 15.1782,-19.4152 15.2268,-21.7752 0.1044,-5.0668 86.7373,-92.6067 91.6471,-92.6067 1.8488,0 6.8345,-3.1146 11.0793,-6.9212 24.4505,-21.9269 59.1943,-42.9118 71.047,-42.9118 4.97,0 9.0362,-2.4917 9.0362,-5.537 0,-3.0454 4.7757,-5.5371 10.6127,-5.5371 5.8368,0 11.4627,-2.5503 12.5017,-5.6675 1.0391,-3.1172 11.8362,-7.2399 23.9937,-9.1617 12.1575,-1.9218 23.6341,-5.8218 25.5036,-8.6666 1.8695,-2.8448 38.559,-6.5643 81.5321,-8.2655 l 78.1329,-3.093 23.6711,-22.9599 c 29.3643,-28.4821 59.6616,-64.2472 59.6616,-70.429 0,-2.5547 12.7451,-4.6449 28.3225,-4.6449 25.5689,0 30.1402,-1.9845 47.0191,-20.4119 10.2831,-11.2266 20.1307,-24.9307 21.8836,-30.4535 2.3182,-7.3038 8.7492,-10.0416 23.5872,-10.0416 18.5284,0 21.613,-2.2862 33.6184,-24.9166 15.016,-28.3054 30.608,-34.3265 25.0925,-9.6897 -6.1482,27.4625 -38.1248,89.7133 -47.7362,92.9308 -5.1736,1.732 -10.7761,7.3819 -12.4499,12.5555 -3.3413,10.3273 -35.7889,34.3231 -46.4124,34.3231 -3.672,0 -15.2202,8.7977 -25.6626,19.5505 -10.4424,10.7528 -32.4808,25.7286 -48.9741,33.2795 -31.596,14.4651 -51.2103,31.0507 -78.5747,66.4416 -9.1361,11.8158 -31.6829,37.1549 -50.1042,56.309 -27.4234,28.5143 -36.7052,34.8256 -51.2173,34.8256 -9.7483,0 -17.7241,2.2414 -17.7241,4.9809 0,2.7396 -31.7686,5.9108 -70.5969,7.0473 -38.8282,1.1364 -75.5801,4.8729 -81.6708,8.3033 -6.0907,3.4304 -22.9094,12.0902 -37.3748,19.244 -14.4654,7.1539 -26.3008,14.88 -26.3008,17.1693 0,2.2892 -3.2711,4.1622 -7.2691,4.1622 -7.4082,0 -75.7418,63.8805 -75.8397,70.8974 -0.06,4.3055 -32.1806,47.0312 -49.5769,65.9457 -6.202,6.7432 -11.3242,14.2181 -11.3826,16.611 -0.058,2.3928 -8.7792,14.29 -19.3795,26.4381 -10.6004,12.1481 -19.2733,24.6793 -19.2733,27.8469 0,3.1677 -4.9834,9.3512 -11.0741,13.7412 -6.0907,4.3899 -11.074,10.1012 -11.074,12.6918 0,2.5906 -3.1145,7.92 -6.9212,11.8431 -22.413,23.0983 -42.9118,47.7538 -42.9118,51.6132 0,2.4543 -5.2759,8.1269 -11.7243,12.6059 -10.1247,7.0326 -24.4326,19.3563 -55.7528,48.0217 -3.9999,3.6608 -9.9259,9.8899 -13.169,13.8425 -3.2431,3.9525 -14.148,13.4156 -24.2332,21.0289 -10.0852,7.6134 -23.0046,18.2029 -28.7098,23.5323 -5.7052,5.3294 -13.9029,9.6898 -18.2172,9.6898 -4.3142,0 -8.6746,2.0759 -9.6897,4.6131 -2.8391,7.0961 -73.6984,45.2199 -84.0486,45.2199 -5.0367,0 -9.1577,2.4917 -9.1577,5.537 0,3.0454 -4.9833,5.537 -11.074,5.537 -6.0907,0 -11.074,2.4917 -11.074,5.537 0,3.0454 -3.7375,5.537 -8.3055,5.537 -4.568,0 -8.3055,-2.3137 -8.3055,-5.1415 z"
         id="path3822"
         inkscape:connector-curvature="0" />
      <path
         style="fill:#000000;fill-opacity:1;stroke:none"
         d="m -1392.5964,3299.6739 c -6.4891,-6.6658 -20.7623,-19.5945 -31.7181,-28.7306 -13.9004,-11.5915 -19.9559,-21.2122 -20.0394,-31.8378 -0.066,-8.3747 2.372,-15.2268 5.4173,-15.2268 3.0454,0 5.537,-6.0214 5.537,-13.381 0,-7.3596 1.8688,-14.2117 4.1528,-15.2268 2.284,-1.0151 12.5225,-18.6643 22.7522,-39.2205 13.3625,-26.8513 21.6154,-37.3748 29.3105,-37.3748 14.0463,0 54.5246,37.6558 54.5246,50.7225 0,5.6015 2.4917,10.1846 5.5371,10.1846 3.0453,0 5.537,11.2124 5.537,24.9165 0,13.7041 -2.4917,24.9166 -5.537,24.9166 -3.0454,0 -5.5371,3.8367 -5.5371,8.526 0,11.076 -18.0639,46.1728 -31.947,62.0708 -13.439,15.3893 -22.7596,15.3062 -37.9899,-0.3387 l 0,0 z"
         id="path3824"
         inkscape:connector-curvature="0" />
      <path
         style="fill:#000000;fill-opacity:1;stroke:none"
         d="m -1474.2633,3481.5162 c -5.6486,-7.5217 -14.344,-14.9688 -19.3232,-16.5491 -18.4152,-5.8448 -24.3891,-24.1338 -16.5524,-50.6751 3.9468,-13.3667 9.1236,-24.3031 11.5041,-24.3031 2.3805,0 4.3282,-3.7375 4.3282,-8.3055 0,-4.568 2.4916,-8.3055 5.537,-8.3055 3.0453,0 5.537,-3.5139 5.537,-7.8086 0,-13.6328 29.2577,-53.0985 39.3644,-53.0985 13.4413,0 59.5169,39.3648 59.9487,51.2173 0.5171,14.1936 22.501,12.8411 22.501,-1.3842 0,-6.0907 1.8687,-11.0827 4.1528,-11.0934 2.284,-0.011 11.4986,-13.6376 20.4769,-30.2822 8.9782,-16.6446 19.7658,-31.5836 23.9722,-33.1978 9.973,-3.8269 34.4532,2.3757 34.4532,8.7296 0,2.7152 3.7375,4.9367 8.3055,4.9367 4.568,0 8.3055,3.1875 8.3055,7.0832 0,3.8957 4.9833,10.6749 11.074,15.0649 8.8759,6.3973 11.074,14.3335 11.074,39.9813 0,17.6418 -2.4844,31.9997 -5.537,31.9997 -3.0453,0 -5.537,3.7375 -5.537,8.3055 0,4.5681 -2.4916,8.3055 -5.537,8.3055 -3.0453,0 -5.537,4.4331 -5.537,9.8512 0,9.6064 -35.8828,51.0559 -44.199,51.0559 -5.8227,0 -55.4671,-50.2096 -55.4671,-56.0986 0,-2.6447 -4.9833,-4.8085 -11.074,-4.8085 -6.0907,0 -11.074,3.52 -11.074,7.8223 0,4.3022 -8.7208,21.064 -19.3795,37.2485 -10.6588,16.1844 -19.3796,31.3518 -19.3796,33.7053 0,2.3535 -9.3752,4.279 -20.8338,4.279 -15.6916,0 -23.3687,-3.3754 -31.1039,-13.6758 z"
         id="path3826"
         inkscape:connector-curvature="0" />
      <path
         style="fill:#000000;fill-opacity:1;stroke:none"
         d="m -1877.7831,3394.1417 c -10.4417,-9.8974 -24.3597,-21.6599 -30.9289,-26.1389 -16.2617,-11.0874 -15.0385,-29.8985 3.9508,-60.7602 8.7422,-14.2079 17.8195,-31.925 20.1716,-39.3714 2.3522,-7.4464 8.9036,-17.5687 14.5586,-22.4939 5.6551,-4.9252 10.282,-12.0474 10.282,-15.827 0,-8.1122 29.2833,-2.5806 32.4022,6.1208 1.0717,2.9901 5.5882,8.412 10.0366,12.0488 4.4484,3.6368 14.5729,13.4644 22.4989,21.8391 18.012,19.0318 22.2239,19.0318 30.5665,0 3.671,-8.3747 11.0926,-19.2565 16.4923,-24.1817 5.3997,-4.9252 9.8176,-12.5533 9.8176,-16.9512 0,-8.4295 19.6943,-32.2324 26.6687,-32.2324 4.9045,0 27.9404,15.6537 40.4559,27.4913 16.7598,15.8519 28.2554,45.1566 24.6958,62.9546 -4.5146,22.5733 -20.8491,59.0533 -26.4419,59.0533 -2.4593,0 -4.4714,2.6696 -4.4714,5.9325 0,7.304 -10.4323,18.0561 -25.1738,25.9455 -13.6436,7.3018 -23.3867,2.4032 -53.6667,-26.9826 -12.1885,-11.8285 -24.4056,-21.5064 -27.149,-21.5064 -2.7434,0 -7.9916,6.852 -11.6627,15.2267 -3.6711,8.3747 -11.0926,19.2565 -16.4923,24.1818 -5.3997,4.9252 -9.8177,12.6369 -9.8177,17.1371 0,10.4469 -17.5897,26.5094 -29.0299,26.5094 -4.8281,0 -17.3216,-8.0978 -27.7632,-17.9952 z"
         id="path3828"
         inkscape:connector-curvature="0" />
      <path
         style="fill:#000000;stroke:#000000;stroke-width:1px;stroke-linecap:butt;stroke-linejoin:miter;stroke-opacity:1"
         d="m 3348.5042,3168.3082 -177.1842,210.4062 -8.3055,40.1433 181.3369,-213.1747 z"
         id="path3830"
         inkscape:connector-curvature="0" />
    </g>
  </g>
</svg>
